<svg width="66" height="38" viewBox="0 0 66 38" fill="none" xmlns="http://www.w3.org/2000/svg">
<path d="M2 18.2143C1.17157 18.2143 0.5 18.8859 0.5 19.7143C0.5 20.5427 1.17157 21.2143 2 21.2143V18.2143ZM46.0811 20.7749C46.6669 20.1892 46.6669 19.2394 46.0811 18.6536L36.5351 9.10769C35.9493 8.5219 34.9996 8.5219 34.4138 9.10769C33.828 9.69347 33.828 10.6432 34.4138 11.229L42.8991 19.7143L34.4138 28.1996C33.828 28.7854 33.828 29.7351 34.4138 30.3209C34.9996 30.9067 35.9493 30.9067 36.5351 30.3209L46.0811 20.7749ZM2 19.7143V21.2143H45.0204V19.7143V18.2143H2V19.7143Z" fill="#1C1C2D"/>
<path d="M64 18.2143C64.8284 18.2143 65.5 18.8859 65.5 19.7143C65.5 20.5427 64.8284 21.2143 64 21.2143V18.2143ZM19.9189 20.7749C19.3331 20.1892 19.3331 19.2394 19.9189 18.6536L29.4649 9.10769C30.0507 8.5219 31.0004 8.5219 31.5862 9.10769C32.172 9.69347 32.172 10.6432 31.5862 11.229L23.1009 19.7143L31.5862 28.1996C32.172 28.7854 32.172 29.7351 31.5862 30.3209C31.0004 30.9067 30.0507 30.9067 29.4649 30.3209L19.9189 20.7749ZM64 19.7143V21.2143H20.9796V19.7143V18.2143H64V19.7143Z" fill="#1C1C2D"/>
<path d="M43.5205 36.1633C43.5205 36.9917 44.1921 37.6633 45.0205 37.6633C45.8489 37.6633 46.5205 36.9917 46.5205 36.1633H43.5205ZM46.0812 18.6536C45.4954 18.0678 44.5456 18.0678 43.9598 18.6536L34.4139 28.1996C33.8281 28.7854 33.8281 29.7351 34.4139 30.3209C34.9997 30.9067 35.9494 30.9067 36.5352 30.3209L45.0205 21.8356L53.5058 30.3209C54.0916 30.9067 55.0413 30.9067 55.6271 30.3209C56.2129 29.7351 56.2129 28.7854 55.6271 28.1996L46.0812 18.6536ZM45.0205 36.1633H46.5205V19.7143H45.0205H43.5205V36.1633H45.0205Z" fill="#1C1C2D"/>
<path d="M22.4795 2C22.4795 1.17157 21.8079 0.5 20.9795 0.5C20.1511 0.5 19.4795 1.17157 19.4795 2H22.4795ZM19.9188 20.7749C20.5046 21.3607 21.4544 21.3607 22.0402 20.7749L31.5861 11.229C32.1719 10.6432 32.1719 9.69347 31.5861 9.10768C31.0003 8.5219 30.0506 8.5219 29.4648 9.10768L20.9795 17.593L12.4942 9.10768C11.9084 8.5219 10.9587 8.5219 10.3729 9.10768C9.7871 9.69347 9.7871 10.6432 10.3729 11.229L19.9188 20.7749ZM20.9795 2H19.4795V19.7143H20.9795H22.4795V2H20.9795Z" fill="#1C1C2D"/>
</svg>
